<svg width="40" height="40" viewBox="0 0 40 40" fill="none" xmlns="http://www.w3.org/2000/svg">
<g clip-path="url(#clip0_5_366)">
<path d="M26.1386 0H13.8599C2.65489 0 -0.00135803 2.65625 -0.00135803 13.8612V26.14C-0.00135803 37.345 2.65489 40.0013 13.8599 40.0013H26.1386C37.3436 40.0013 39.9999 37.345 39.9999 26.14V13.8612C39.9999 2.65625 37.3174 0 26.1386 0V0ZM32.2911 28.535H29.3874C28.2874 28.535 27.9486 27.6625 25.9699 25.6575C24.2511 23.9912 23.4899 23.77 23.0661 23.77C22.4674 23.77 22.2974 23.9388 22.2974 24.76V27.3837C22.2974 28.0875 22.0761 28.51 20.2136 28.51C17.1336 28.51 13.7161 26.6475 11.3199 23.1775C7.70614 18.0925 6.71739 14.2837 6.71739 13.4963C6.71739 13.0725 6.88614 12.6762 7.69989 12.6762H10.6099C11.3461 12.6762 11.6261 13.015 11.9124 13.8025C13.3511 17.9562 15.7474 21.595 16.7361 21.595C17.1011 21.595 17.2699 21.4263 17.2699 20.495V16.205C17.1586 14.2262 16.1174 14.0562 16.1174 13.3537C16.1174 13.015 16.3974 12.6762 16.8461 12.6762H21.4224C22.0411 12.6762 22.2686 13.015 22.2686 13.7437V19.5312C22.2686 20.1562 22.5486 20.3775 22.7174 20.3775C23.0824 20.3775 23.3949 20.1562 24.0711 19.4788C26.1611 17.135 27.6586 13.5213 27.6586 13.5213C27.8536 13.0975 28.1924 12.7013 28.9286 12.7013H31.8386C32.7111 12.7013 32.9061 13.15 32.7111 13.775C32.3461 15.4675 28.7849 20.4938 28.7849 20.4938C28.4786 21.0013 28.3611 21.2225 28.7849 21.7887C29.0974 22.2125 30.1136 23.0913 30.7899 23.8787C32.0336 25.2913 32.9899 26.4762 33.2449 27.2962C33.5311 28.11 33.1086 28.5337 32.2874 28.5337L32.2911 28.535Z" fill="white"/>
</g>
<defs>
<clipPath id="clip0_5_366">
<rect width="40" height="40" fill="white"/>
</clipPath>
</defs>
</svg>
